<svg id="svg" version="1.1" xmlns="http://www.w3.org/2000/svg" xmlns:xlink="http://www.w3.org/1999/xlink" width="400" height="400" viewBox="0, 0, 400,400"><g id="svgg"><path id="path0" d="M196.600 64.538 C 174.906 83.366,149.257 105.596,134.766 118.130 C 102.353 146.163,65.490 178.178,64.169 179.441 L 63.299 180.273 92.035 180.171 C 107.840 180.114,120.712 180.206,120.640 180.375 C 120.478 180.752,106.311 205.656,101.365 214.258 C 99.389 217.695,95.745 224.111,93.267 228.516 C 84.968 243.270,64.349 279.666,63.171 281.641 C 62.408 282.919,62.404 282.967,63.111 282.386 C 63.527 282.044,65.273 280.627,66.992 279.236 C 73.303 274.132,103.308 249.525,116.211 238.872 C 123.516 232.841,134.854 223.523,141.406 218.166 C 147.959 212.808,155.957 206.242,159.180 203.573 L 165.039 198.722 165.904 193.605 C 166.380 190.791,166.643 188.380,166.490 188.248 C 166.337 188.116,165.454 187.715,164.529 187.358 L 162.847 186.708 152.419 195.231 C 146.684 199.918,137.510 207.438,132.031 211.941 C 114.483 226.364,101.235 237.109,101.002 237.109 C 100.877 237.109,101.340 236.099,102.031 234.863 C 104.161 231.055,122.510 199.011,131.052 184.180 C 135.508 176.445,139.239 169.899,139.343 169.632 C 139.494 169.249,134.620 169.125,116.310 169.046 L 93.086 168.945 98.984 163.834 C 131.655 135.521,134.565 132.984,163.574 107.532 C 172.222 99.945,179.297 93.850,179.297 93.989 C 179.297 94.127,178.613 95.492,177.778 97.022 C 176.942 98.553,172.296 107.539,167.451 116.992 C 162.607 126.445,156.119 138.926,153.032 144.727 L 147.421 155.273 193.660 155.373 L 239.899 155.472 246.219 150.342 C 249.695 147.521,252.753 145.016,253.013 144.774 C 253.364 144.450,242.156 144.363,209.947 144.439 C 165.085 144.544,165.439 144.555,166.752 143.145 C 166.941 142.940,169.600 138.027,172.660 132.227 C 175.720 126.426,179.411 119.482,180.862 116.797 C 183.195 112.479,187.031 105.085,199.604 80.664 C 208.614 63.164,216.436 47.656,216.254 47.656 C 216.142 47.656,207.298 55.253,196.600 64.538 M135.642 267.380 C 134.288 267.969,133.594 269.237,133.594 271.119 C 133.594 272.082,133.437 272.266,132.617 272.266 C 131.762 272.266,131.641 272.435,131.641 273.633 C 131.641 274.831,131.762 275.000,132.617 275.000 L 133.594 275.000 133.594 280.566 L 133.593 286.133 135.001 286.093 L 136.409 286.053 136.350 280.526 L 136.291 275.000 138.068 275.000 C 139.837 275.000,139.844 274.995,139.844 273.633 C 139.844 272.268,139.840 272.266,138.044 272.266 C 136.276 272.266,136.248 272.246,136.512 271.194 C 136.916 269.586,137.522 269.055,138.747 269.235 C 139.719 269.378,139.844 269.275,139.844 268.337 C 139.844 266.777,137.997 266.357,135.642 267.380 M190.377 267.222 C 189.045 267.608,187.891 269.467,187.891 271.223 C 187.891 271.950,187.659 272.244,187.013 272.336 C 185.744 272.517,185.734 274.748,187.001 274.928 C 187.846 275.048,187.872 275.203,187.978 280.566 L 188.086 286.081 189.551 286.118 L 191.016 286.155 191.016 280.578 L 191.016 275.000 192.578 275.000 C 194.103 275.000,194.141 274.967,194.141 273.633 C 194.141 272.298,194.103 272.266,192.578 272.266 C 191.107 272.266,191.016 272.198,191.016 271.107 C 191.016 269.748,192.158 268.951,193.591 269.310 C 194.422 269.519,194.531 269.415,194.531 268.416 C 194.531 266.913,192.981 266.468,190.377 267.222 M105.837 267.534 C 99.473 269.615,100.711 276.032,107.813 277.776 C 111.989 278.803,112.891 279.351,112.891 280.868 C 112.891 284.362,106.629 285.061,105.078 281.740 C 104.174 279.804,101.334 279.802,101.713 281.738 C 103.075 288.688,116.008 287.963,116.014 280.938 C 116.017 277.469,114.785 276.370,109.390 275.027 C 104.939 273.919,103.601 272.172,105.946 270.530 C 107.890 269.169,112.500 270.289,112.500 272.122 C 112.500 272.555,112.874 272.672,113.965 272.582 C 115.584 272.448,115.796 271.484,114.613 269.637 C 113.438 267.803,108.577 266.639,105.837 267.534 M287.109 276.855 L 287.109 286.133 288.505 286.093 L 289.902 286.053 289.971 282.063 L 290.039 278.072 294.434 277.941 L 298.828 277.810 298.829 281.971 L 298.831 286.133 300.392 286.152 L 301.953 286.171 301.953 276.875 L 301.953 267.578 300.391 267.578 L 298.828 267.578 298.828 271.387 L 298.828 275.195 294.434 275.181 L 290.039 275.167 290.039 271.372 L 290.039 267.578 288.574 267.578 L 287.109 267.578 287.109 276.855 M157.031 270.508 C 157.031 272.122,156.952 272.266,156.055 272.266 C 155.199 272.266,155.078 272.435,155.078 273.633 C 155.078 274.831,155.199 275.000,156.055 275.000 L 157.031 275.000 157.031 279.278 C 157.031 285.260,157.750 286.328,161.777 286.328 C 163.188 286.328,163.281 286.255,163.281 285.156 C 163.281 284.232,163.110 283.984,162.474 283.984 C 160.401 283.984,160.156 283.470,160.156 279.110 L 160.156 275.045 161.799 274.925 C 163.337 274.812,163.441 274.730,163.441 273.633 C 163.441 272.536,163.337 272.453,161.799 272.341 L 160.156 272.221 160.156 270.485 L 160.156 268.750 158.594 268.750 L 157.031 268.750 157.031 270.508 M121.001 272.877 C 119.997 273.422,118.750 275.237,118.750 276.152 C 118.750 276.990,121.279 276.608,121.685 275.709 C 122.635 273.606,126.115 274.107,126.585 276.414 L 126.834 277.633 124.122 277.885 C 119.794 278.288,118.383 279.415,118.368 282.485 C 118.351 286.080,123.188 287.776,125.980 285.153 L 126.953 284.239 126.953 285.186 C 126.953 286.008,127.134 286.133,128.320 286.133 L 129.688 286.133 129.688 280.938 C 129.688 275.388,129.354 274.069,127.650 272.875 C 126.526 272.088,122.453 272.089,121.001 272.877 M144.258 273.078 C 139.977 275.197,139.896 283.397,144.135 285.616 C 147.246 287.245,153.125 285.405,153.125 282.802 C 153.125 281.917,151.050 282.047,150.105 282.991 C 148.102 284.995,144.141 283.720,144.141 281.072 L 144.141 280.078 148.633 280.078 L 153.125 280.078 153.125 278.217 C 153.125 273.392,148.748 270.856,144.258 273.078 M165.234 272.477 C 165.234 272.618,166.381 275.793,167.783 279.532 C 170.460 286.675,170.613 288.520,168.545 288.730 C 168.228 288.763,167.749 288.807,167.480 288.828 C 166.793 288.883,166.419 289.495,166.412 290.577 C 166.404 291.910,169.895 291.611,171.352 290.154 C 172.110 289.396,178.516 273.519,178.516 272.399 C 178.516 272.300,177.856 272.273,177.051 272.340 L 175.586 272.461 173.828 277.611 L 172.070 282.761 170.280 277.611 L 168.490 272.461 166.862 272.341 C 165.967 272.275,165.234 272.336,165.234 272.477 M198.445 272.950 C 195.919 274.219,194.546 277.477,195.116 280.850 C 196.463 288.827,207.615 288.011,208.131 279.898 C 208.504 274.046,203.462 270.429,198.445 272.950 M210.636 279.158 L 210.742 286.051 212.207 286.092 L 213.672 286.133 213.672 282.116 C 213.672 276.568,214.916 274.207,217.427 274.986 C 217.839 275.114,218.347 274.103,218.353 273.145 C 218.362 271.828,216.213 271.931,214.767 273.315 L 213.672 274.365 213.672 273.315 C 213.672 272.350,213.545 272.266,212.100 272.266 L 210.529 272.266 210.636 279.158 M226.923 275.293 C 227.541 276.958,228.686 280.021,229.468 282.099 C 231.266 286.877,230.940 288.770,228.319 288.770 C 227.783 288.770,227.341 288.967,227.338 289.209 C 227.335 289.451,227.227 290.044,227.098 290.527 C 226.606 292.362,231.795 291.355,232.833 289.414 C 233.231 288.671,238.194 275.230,238.850 273.119 C 239.114 272.270,239.040 272.222,237.648 272.338 L 236.165 272.461 234.586 277.432 C 233.718 280.166,232.920 282.407,232.813 282.411 C 232.705 282.416,231.838 280.135,230.885 277.343 L 229.153 272.266 227.477 272.266 L 225.801 272.266 226.923 275.293 M243.514 272.824 C 238.904 274.831,239.247 284.387,243.985 285.951 C 249.153 287.656,253.123 284.763,253.124 279.291 C 253.126 273.778,248.490 270.658,243.514 272.824 M255.859 277.716 C 255.859 281.110,256.035 283.553,256.326 284.191 C 257.369 286.479,261.504 287.116,263.642 285.317 L 264.844 284.306 264.844 285.219 C 264.844 286.003,265.038 286.133,266.211 286.133 L 267.578 286.133 267.578 279.199 L 267.578 272.266 266.016 272.266 L 264.453 272.266 264.453 277.166 C 264.453 282.678,263.869 283.984,261.406 283.984 C 259.238 283.984,258.805 282.936,258.652 277.303 L 258.515 272.266 257.187 272.266 L 255.859 272.266 255.859 277.716 M270.703 279.217 L 270.703 286.169 272.235 286.178 L 273.767 286.186 273.895 281.339 C 274.037 275.973,274.506 275.000,276.951 275.000 C 277.996 275.000,278.494 274.283,278.510 272.754 C 278.520 271.862,275.978 272.189,274.862 273.224 L 273.828 274.181 273.828 273.224 C 273.828 272.366,273.664 272.266,272.266 272.266 L 270.703 272.266 270.703 279.217 M307.820 272.928 C 301.373 276.271,304.202 286.690,311.431 286.227 C 315.549 285.962,317.383 283.828,317.383 279.297 C 317.383 273.689,312.554 270.473,307.820 272.928 M320.011 279.158 L 320.117 286.051 321.582 286.092 L 323.047 286.133 323.047 281.513 C 323.047 276.927,323.055 276.885,324.189 275.751 C 327.101 272.839,328.516 274.626,328.516 281.218 L 328.516 286.264 329.980 286.183 L 331.445 286.101 331.641 281.234 C 331.857 275.849,331.903 275.700,333.583 275.004 C 336.088 273.967,336.711 275.037,336.768 280.478 C 336.794 283.051,336.838 285.365,336.865 285.620 C 336.892 285.875,337.573 286.112,338.379 286.147 L 339.844 286.210 339.844 280.819 C 339.844 277.471,339.667 275.039,339.377 274.403 C 338.345 272.137,334.541 271.519,332.452 273.277 L 331.250 274.288 330.048 273.277 C 328.550 272.017,326.160 271.919,324.316 273.043 C 323.050 273.814,323.047 273.814,323.047 273.041 C 323.047 272.396,322.783 272.266,321.475 272.266 L 319.904 272.266 320.011 279.158 M345.548 273.151 C 341.723 275.344,341.395 282.645,345.003 285.290 C 347.516 287.132,352.395 286.375,353.895 283.910 L 354.681 282.617 353.536 282.319 C 352.599 282.075,352.210 282.201,351.408 283.003 C 349.512 284.898,346.111 283.837,345.480 281.152 L 345.228 280.078 349.958 280.078 L 354.688 280.078 354.687 278.418 C 354.685 273.507,349.819 270.703,345.548 273.151 M149.581 275.639 C 151.017 277.464,150.719 277.734,147.266 277.734 C 144.401 277.734,144.141 277.669,144.141 276.953 C 144.141 274.645,148.055 273.699,149.581 275.639 M203.936 275.751 C 206.430 278.245,204.915 283.984,201.762 283.984 C 199.239 283.984,197.861 281.930,198.139 278.581 C 198.450 274.834,201.520 273.335,203.936 275.751 M248.170 275.064 C 251.799 276.996,250.631 283.984,246.680 283.984 C 244.979 283.984,243.839 283.030,243.344 281.192 C 242.197 276.933,245.000 273.375,248.170 275.064 M313.162 275.552 C 315.815 277.835,314.193 283.984,310.938 283.984 C 309.063 283.984,307.744 282.507,307.518 280.157 C 307.083 275.633,310.251 273.048,313.162 275.552 M350.870 275.293 C 352.641 277.310,352.266 277.734,348.713 277.734 L 345.421 277.734 345.610 276.747 C 345.989 274.763,349.542 273.781,350.870 275.293 M126.657 279.912 C 127.071 280.326,126.192 282.609,125.353 283.301 C 122.993 285.245,119.488 282.770,121.777 280.776 C 122.888 279.808,126.002 279.257,126.657 279.912 " stroke="none" fill="#0c2871" fill-rule="evenodd"></path><path id="path1" d="M0.000 200.000 L 0.000 400.000 200.000 400.000 L 400.000 400.000 400.000 200.000 L 400.000 0.000 200.000 0.000 L 0.000 0.000 0.000 200.000 M210.698 59.233 C 194.182 91.650,182.580 113.944,170.680 136.133 L 166.489 143.945 210.003 144.045 C 233.935 144.099,253.516 144.277,253.516 144.439 C 253.516 144.601,253.208 144.932,252.832 145.174 C 252.456 145.415,249.424 147.828,246.094 150.536 L 240.039 155.459 193.750 155.561 C 168.291 155.618,147.395 155.627,147.314 155.583 C 147.234 155.538,150.770 148.682,155.172 140.348 C 159.574 132.014,165.824 120.004,169.060 113.659 C 172.297 107.314,175.915 100.312,177.101 98.100 C 178.287 95.888,178.965 94.312,178.607 94.598 C 178.250 94.883,171.535 100.737,163.686 107.605 C 155.836 114.474,143.877 124.938,137.109 130.858 C 127.453 139.305,102.445 160.988,94.228 168.037 L 92.949 169.135 116.327 169.235 L 139.706 169.336 133.201 180.664 C 103.377 232.601,100.831 237.127,101.860 236.385 C 103.009 235.555,117.394 223.821,143.360 202.529 C 152.276 195.218,160.307 188.649,161.208 187.931 L 162.846 186.624 164.821 187.335 C 167.110 188.157,167.043 187.801,166.016 193.750 C 165.589 196.221,165.238 198.346,165.237 198.473 C 165.234 198.773,162.496 201.053,142.773 217.192 C 133.750 224.576,122.412 233.892,117.578 237.895 C 112.744 241.898,98.945 253.225,86.914 263.065 C 74.883 272.906,64.557 281.406,63.969 281.954 C 61.990 283.798,62.490 282.598,67.040 274.582 C 80.513 250.850,84.983 242.966,88.177 237.305 C 90.116 233.867,97.849 220.244,105.362 207.031 C 112.875 193.818,119.317 182.437,119.677 181.738 L 120.333 180.469 91.807 180.469 C 76.118 180.469,63.292 180.337,63.306 180.176 C 63.320 180.015,67.319 176.437,72.193 172.226 C 77.067 168.015,88.009 158.523,96.509 151.133 C 105.010 143.742,119.512 131.167,128.736 123.188 C 137.961 115.209,151.677 103.343,159.217 96.821 C 166.757 90.298,180.716 78.193,190.237 69.922 C 199.757 61.650,209.496 53.195,211.879 51.132 C 214.262 49.069,216.263 47.511,216.326 47.670 C 216.390 47.829,213.857 53.032,210.698 59.233 M152.344 74.778 C 156.898 75.561,163.790 77.335,167.778 78.750 L 170.759 79.809 167.899 82.705 C 163.972 86.683,164.424 86.557,158.992 85.190 C 102.222 70.902,49.076 118.128,57.924 175.000 C 58.483 178.595,58.476 178.753,57.693 180.047 L 56.886 181.382 58.275 182.586 C 59.128 183.326,59.778 184.316,59.960 185.156 C 62.802 198.271,74.192 216.120,85.421 225.055 C 86.800 226.153,87.876 227.249,87.812 227.490 C 87.748 227.732,86.827 229.541,85.765 231.510 L 83.835 235.090 81.514 233.268 C 43.568 203.459,37.488 145.207,68.297 106.641 C 87.639 82.428,121.706 69.513,152.344 74.778 M144.727 87.123 C 148.997 87.525,158.235 89.214,159.241 89.777 C 159.611 89.984,158.584 91.044,155.797 93.334 L 151.826 96.596 147.459 95.940 C 107.435 89.923,70.652 120.368,69.637 160.352 L 69.459 167.383 65.882 171.005 L 62.305 174.627 62.018 173.348 C 60.211 165.289,61.902 148.933,65.673 137.992 C 76.931 105.334,110.266 83.884,144.727 87.123 M201.701 100.098 C 211.911 111.111,218.024 121.185,222.663 134.636 L 224.189 139.063 219.609 139.063 L 215.029 139.063 213.885 135.695 C 210.586 125.977,203.923 115.119,196.389 107.181 C 193.251 103.876,193.330 104.584,195.575 99.902 C 197.789 95.284,197.222 95.266,201.701 100.098 M193.981 110.449 C 201.261 118.762,207.331 128.703,210.175 136.968 L 210.895 139.063 207.082 139.063 L 203.269 139.063 202.354 136.816 C 199.545 129.923,194.566 121.804,190.286 117.139 L 187.912 114.552 189.757 111.396 C 191.966 107.617,191.577 107.704,193.981 110.449 M205.658 169.549 C 205.519 169.989,204.926 172.846,204.341 175.897 L 203.278 181.445 195.584 181.551 C 191.353 181.609,187.891 181.739,187.891 181.838 C 187.891 182.215,180.051 222.093,179.886 222.559 C 179.755 222.926,177.903 223.047,172.431 223.047 C 166.263 223.047,165.184 222.961,165.366 222.486 C 165.485 222.177,167.002 214.662,168.738 205.787 C 170.475 196.911,172.244 188.066,172.669 186.133 C 173.095 184.199,173.442 182.390,173.440 182.113 C 173.438 181.715,171.802 181.633,165.625 181.723 C 160.601 181.795,157.812 181.696,157.812 181.445 C 157.812 181.230,158.365 178.286,159.040 174.902 L 160.268 168.750 183.090 168.750 C 205.907 168.750,205.912 168.750,205.658 169.549 M238.777 169.318 C 246.424 170.682,250.123 174.956,250.116 182.422 C 250.107 190.769,246.157 198.131,240.083 201.121 L 237.611 202.338 240.472 212.204 C 242.045 217.631,243.339 222.246,243.346 222.461 C 243.355 222.712,240.648 222.811,235.757 222.738 L 228.154 222.624 227.893 221.175 C 227.750 220.379,226.987 216.299,226.199 212.109 L 224.766 204.492 221.564 204.481 L 218.362 204.471 218.118 205.849 C 217.441 209.659,214.827 222.413,214.695 222.545 C 214.217 223.023,200.781 222.981,200.781 222.502 C 200.781 222.219,203.154 210.114,206.055 195.601 C 208.955 181.089,211.328 169.110,211.328 168.982 C 211.328 168.473,235.711 168.772,238.777 169.318 M290.415 170.020 C 290.533 170.718,291.238 175.244,291.980 180.078 C 292.723 184.912,293.941 192.734,294.688 197.461 C 295.768 204.302,297.102 213.750,298.151 222.003 C 298.233 222.647,283.538 223.122,282.912 222.495 C 282.840 222.423,282.495 220.057,282.145 217.237 L 281.508 212.109 273.375 212.109 C 266.047 212.109,265.200 212.177,264.825 212.793 C 264.596 213.169,263.481 215.498,262.347 217.969 L 260.285 222.461 253.092 222.656 C 249.135 222.764,245.856 222.838,245.803 222.821 C 245.751 222.805,246.910 220.520,248.378 217.743 C 251.133 212.536,261.366 192.715,269.184 177.442 L 273.633 168.752 281.916 168.751 L 290.199 168.750 290.415 170.020 M331.008 176.074 C 332.248 180.103,334.434 187.081,335.866 191.581 L 338.469 199.764 339.137 196.854 C 339.505 195.254,340.695 189.199,341.782 183.398 C 342.870 177.598,343.946 171.929,344.173 170.801 L 344.587 168.750 351.242 168.750 L 357.897 168.750 357.679 169.629 C 357.559 170.112,355.168 181.934,352.367 195.898 C 349.566 209.863,347.192 221.641,347.092 222.070 C 346.916 222.824,346.636 222.848,339.116 222.738 L 331.323 222.625 327.616 211.215 C 325.577 204.939,323.334 197.959,322.631 195.703 L 321.353 191.602 321.019 193.359 C 320.835 194.326,319.501 201.322,318.055 208.906 L 315.424 222.696 308.884 222.774 C 305.287 222.816,302.344 222.778,302.344 222.688 C 302.344 222.437,312.514 170.627,312.759 169.629 C 312.974 168.754,313.008 168.750,320.864 168.750 L 328.753 168.750 331.008 176.074 M222.867 180.957 C 222.681 181.541,220.313 193.638,220.313 194.004 C 220.313 194.409,228.178 193.840,229.688 193.326 C 235.511 191.344,237.365 183.078,232.429 181.103 C 230.432 180.304,223.110 180.192,222.867 180.957 M278.152 185.095 C 277.629 186.310,275.824 190.362,274.139 194.100 C 272.455 197.837,271.148 200.965,271.234 201.052 C 271.843 201.660,280.469 200.614,280.469 199.931 C 280.469 198.844,279.267 183.042,279.178 182.958 C 279.136 182.918,278.674 183.879,278.152 185.095 M73.854 189.143 C 78.015 199.989,84.344 209.010,92.503 215.722 L 93.796 216.785 92.140 220.014 C 91.229 221.789,90.436 223.308,90.376 223.388 C 90.153 223.689,83.931 218.222,81.462 215.557 C 73.961 207.454,66.797 194.920,64.695 186.220 L 64.433 185.136 68.447 185.324 L 72.461 185.512 73.854 189.143 M181.217 228.275 C 175.966 233.106,161.532 239.099,150.391 241.074 C 144.169 242.177,125.748 241.428,123.339 239.974 C 123.177 239.876,124.671 238.512,126.659 236.942 L 130.273 234.088 132.617 234.446 C 142.470 235.950,154.787 234.249,164.648 230.023 L 168.555 228.349 174.805 228.140 C 180.841 227.937,181.568 227.952,181.217 228.275 M198.438 228.180 C 198.438 228.631,191.828 234.699,188.539 237.267 C 169.557 252.089,142.632 257.206,116.739 250.911 C 111.487 249.634,111.258 249.499,112.587 248.453 C 113.156 248.005,114.879 246.588,116.416 245.304 C 117.954 244.020,119.343 242.969,119.504 242.969 C 119.666 242.969,121.451 243.310,123.473 243.726 C 145.222 248.208,166.652 243.310,184.541 229.767 L 186.968 227.930 192.703 227.930 C 195.857 227.930,198.438 228.042,198.438 228.180 M139.710 267.097 C 140.767 267.769,139.830 269.483,138.337 269.608 C 136.002 269.803,135.927 272.266,138.257 272.266 C 139.810 272.266,139.844 272.295,139.844 273.633 C 139.844 274.967,139.807 275.000,138.281 275.000 L 136.719 275.000 136.719 280.664 L 136.719 286.328 134.961 286.328 L 133.203 286.328 133.203 280.664 C 133.203 275.260,133.167 275.000,132.422 275.000 C 131.789 275.000,131.641 274.740,131.641 273.633 C 131.641 272.459,131.770 272.266,132.558 272.266 C 133.318 272.266,133.481 272.056,133.510 271.039 C 133.604 267.740,137.164 265.476,139.710 267.097 M193.913 267.034 C 195.220 267.536,194.684 269.531,193.242 269.531 C 191.729 269.531,191.016 270.120,191.016 271.367 C 191.016 272.155,191.208 272.266,192.578 272.266 C 194.103 272.266,194.141 272.298,194.141 273.633 C 194.141 274.967,194.103 275.000,192.578 275.000 L 191.016 275.000 191.016 280.664 L 191.016 286.328 189.453 286.328 L 187.891 286.328 187.891 280.664 L 187.891 275.000 186.914 275.000 C 186.058 275.000,185.938 274.831,185.938 273.633 C 185.938 272.435,186.058 272.266,186.914 272.266 C 187.754 272.266,187.891 272.088,187.896 270.996 C 187.911 267.863,190.916 265.884,193.913 267.034 M112.731 267.986 C 115.217 269.190,116.664 272.656,114.680 272.656 C 114.161 272.656,113.479 272.755,113.166 272.875 C 112.788 273.020,112.513 272.760,112.347 272.101 C 111.720 269.602,106.013 269.154,105.255 271.544 C 104.780 273.038,105.438 273.799,107.740 274.419 C 115.258 276.441,116.016 277.038,116.016 280.928 C 116.016 285.820,109.978 288.319,104.473 285.707 C 101.892 284.482,100.386 280.469,102.507 280.469 C 103.027 280.469,103.693 280.376,103.987 280.263 C 104.334 280.130,104.694 280.529,105.006 281.392 C 106.288 284.939,113.654 283.955,112.751 280.357 C 112.484 279.292,111.630 278.868,107.830 277.914 C 103.257 276.766,101.951 275.558,101.888 272.418 C 101.800 268.011,107.755 265.577,112.731 267.986 M290.234 271.289 L 290.234 275.000 294.531 275.000 L 298.828 275.000 298.828 271.289 L 298.828 267.578 300.391 267.578 L 301.953 267.578 301.953 276.953 L 301.953 286.328 300.391 286.328 L 298.828 286.328 298.828 282.227 L 298.828 278.125 294.531 278.125 L 290.234 278.125 290.234 282.227 L 290.234 286.328 288.477 286.328 L 286.719 286.328 286.719 276.953 L 286.719 267.578 288.477 267.578 L 290.234 267.578 290.234 271.289 M160.156 270.313 L 160.156 272.266 161.914 272.266 C 163.663 272.266,163.672 272.273,163.672 273.633 C 163.672 274.993,163.663 275.000,161.914 275.000 L 160.156 275.000 160.162 278.809 C 160.169 283.143,160.378 283.685,162.067 283.745 C 163.175 283.785,163.280 283.903,163.280 285.106 L 163.281 286.422 160.879 286.248 C 157.321 285.991,157.031 285.493,157.031 279.644 L 157.031 275.000 155.859 275.000 C 154.781 275.000,154.688 274.891,154.688 273.633 C 154.688 272.374,154.781 272.266,155.859 272.266 C 157.005 272.266,157.031 272.222,157.031 270.313 L 157.031 268.359 158.594 268.359 L 160.156 268.359 160.156 270.313 M126.896 272.484 C 129.254 273.427,129.665 274.636,129.783 280.958 L 129.883 286.329 128.223 286.329 C 126.763 286.328,126.562 286.222,126.557 285.449 C 126.553 284.944,126.429 284.753,126.264 285.000 C 125.320 286.413,121.457 286.912,119.812 285.834 C 115.739 283.166,118.881 277.734,124.497 277.734 C 126.749 277.734,127.376 276.651,125.949 275.223 C 124.774 274.048,121.484 274.768,121.484 276.200 C 121.484 276.399,120.869 276.563,120.117 276.563 C 118.408 276.563,118.282 275.616,119.759 273.861 C 121.359 271.960,124.211 271.409,126.896 272.484 M218.457 272.363 C 218.403 272.524,218.359 273.184,218.359 273.828 C 218.359 274.849,218.220 275.000,217.274 275.000 C 214.609 275.000,213.678 276.997,213.674 282.715 L 213.672 286.328 212.109 286.328 L 210.547 286.328 210.547 279.297 L 210.547 272.266 212.109 272.266 C 213.449 272.266,213.672 272.386,213.672 273.107 C 213.672 273.888,213.722 273.904,214.364 273.323 C 215.652 272.157,218.770 271.426,218.457 272.363 M250.726 273.336 C 256.698 277.787,252.333 287.956,245.146 286.335 C 238.153 284.757,238.188 273.475,245.190 272.289 C 247.164 271.954,249.453 272.387,250.726 273.336 M278.320 273.430 C 278.320 274.710,278.233 274.797,276.628 275.115 C 274.314 275.572,273.828 276.804,273.828 282.214 L 273.828 286.328 272.266 286.328 L 270.703 286.328 270.703 279.297 L 270.703 272.266 272.266 272.266 C 273.707 272.266,273.829 272.349,273.840 273.340 C 273.851 274.292,273.899 274.332,274.270 273.695 C 275.434 271.692,278.320 271.504,278.320 273.430 M150.665 273.031 C 152.214 273.976,153.098 275.630,153.396 278.146 L 153.624 280.078 148.883 280.078 C 143.761 280.078,143.648 280.133,144.582 282.182 C 145.455 284.098,149.046 284.485,150.113 282.777 C 150.697 281.841,153.125 281.717,153.125 282.623 C 153.125 287.109,143.898 287.571,141.700 283.195 C 138.443 276.713,144.829 269.473,150.665 273.031 M170.313 277.344 L 172.070 282.423 173.763 277.344 L 175.456 272.266 176.986 272.266 C 178.918 272.266,179.045 271.546,175.394 281.288 C 171.825 290.817,171.633 291.094,168.448 291.324 L 166.163 291.490 166.327 290.081 C 166.474 288.824,166.614 288.672,167.627 288.672 C 168.473 288.672,168.946 288.369,169.487 287.479 L 170.212 286.286 167.570 279.276 L 164.928 272.266 166.742 272.266 L 168.555 272.266 170.313 277.344 M205.469 273.145 C 209.432 275.850,209.146 283.639,205.004 285.781 C 198.701 289.040,192.375 281.893,195.811 275.396 C 197.456 272.284,202.489 271.111,205.469 273.145 M230.819 276.783 C 231.700 279.268,232.422 281.465,232.422 281.666 C 232.422 283.039,233.226 281.324,234.544 277.141 L 236.079 272.266 237.713 272.266 L 239.346 272.266 236.902 279.031 C 232.627 290.864,232.514 291.042,229.096 291.325 C 227.141 291.487,226.953 291.433,226.953 290.705 C 226.953 289.353,227.391 288.672,228.264 288.666 C 231.227 288.645,231.239 287.205,228.341 279.474 C 226.933 275.719,225.781 272.560,225.781 272.456 C 225.781 272.351,226.554 272.266,227.498 272.266 L 229.216 272.266 230.819 276.783 M258.984 277.269 C 258.984 282.931,259.268 283.724,261.295 283.724 C 263.745 283.724,264.240 282.669,264.387 277.139 L 264.517 272.266 266.047 272.266 L 267.578 272.266 267.578 278.906 C 267.578 282.559,267.581 285.679,267.585 285.840 C 267.589 286.001,266.862 286.188,265.970 286.255 C 264.499 286.367,264.368 286.304,264.560 285.572 C 264.821 284.574,264.640 284.561,263.625 285.507 C 262.128 286.902,258.458 286.757,256.944 285.243 C 255.858 284.156,255.489 282.045,255.478 276.855 L 255.469 272.266 257.227 272.266 L 258.984 272.266 258.984 277.269 M314.459 272.990 C 317.402 274.556,318.587 279.694,316.809 283.179 C 314.570 287.569,307.506 287.587,305.191 283.209 C 301.699 276.605,308.064 269.587,314.459 272.990 M323.047 273.075 L 323.047 273.885 324.076 273.075 C 325.564 271.905,328.836 271.944,330.136 273.149 L 331.088 274.032 332.399 273.149 C 333.319 272.528,334.282 272.266,335.635 272.266 C 339.420 272.266,340.444 274.559,340.169 282.422 L 340.039 286.133 338.379 286.253 L 336.719 286.373 336.719 281.442 C 336.719 275.755,336.469 275.000,334.585 275.000 C 332.188 275.000,331.641 276.244,331.641 281.693 L 331.641 286.328 330.078 286.328 L 328.516 286.328 328.510 281.738 C 328.502 275.684,327.886 274.485,325.139 275.175 C 323.580 275.566,322.992 277.563,323.079 282.168 L 323.155 286.133 321.538 286.253 L 319.922 286.373 319.922 279.319 L 319.922 272.266 321.484 272.266 C 322.805 272.266,323.047 272.391,323.047 273.075 M352.180 273.002 C 353.713 273.937,354.688 275.989,354.688 278.282 L 354.688 280.078 350.195 280.078 C 345.720 280.078,345.703 280.082,345.703 281.011 C 345.703 283.606,349.898 284.965,351.562 282.910 C 352.404 281.870,354.688 281.660,354.688 282.623 C 354.688 286.000,347.242 287.582,344.384 284.813 C 338.577 279.183,345.389 268.861,352.180 273.002 M145.099 275.568 C 143.345 277.323,143.761 277.734,147.292 277.734 C 150.375 277.734,150.438 277.715,150.188 276.855 C 149.531 274.596,146.770 273.897,145.099 275.568 M200.124 275.179 C 196.177 276.900,198.240 284.690,202.401 283.777 C 205.490 283.098,206.013 275.000,202.967 275.000 C 202.660 275.000,202.174 274.919,201.887 274.819 C 201.601 274.719,200.808 274.882,200.124 275.179 M245.452 274.988 C 241.846 276.480,242.864 283.750,246.680 283.750 C 248.907 283.750,250.000 282.283,250.000 279.297 C 250.000 275.937,247.921 273.967,245.452 274.988 M347.266 274.863 C 344.422 275.966,345.264 277.734,348.633 277.734 C 351.199 277.734,351.563 277.647,351.563 277.028 C 351.563 275.400,349.091 274.154,347.266 274.863 M308.635 275.740 C 306.756 277.619,307.330 282.409,309.562 283.473 C 312.846 285.039,315.487 281.207,314.021 277.003 C 313.299 274.931,310.176 274.199,308.635 275.740 M123.870 280.063 C 121.431 280.458,120.389 282.052,121.708 283.371 C 123.249 284.912,126.563 283.162,126.563 280.806 C 126.563 280.146,126.363 279.708,126.074 279.736 C 125.806 279.763,124.814 279.910,123.870 280.063 " stroke="none" fill="#fbfbfb" fill-rule="evenodd"></path><path id="path2" d="M160.360 169.238 C 160.271 169.507,159.738 172.100,159.176 175.000 C 158.614 177.900,158.065 180.581,157.957 180.957 C 157.774 181.592,158.330 181.641,165.836 181.641 C 173.371 181.641,173.893 181.686,173.639 182.324 C 173.371 182.997,172.993 184.864,168.326 208.594 C 167.037 215.146,165.823 220.991,165.629 221.582 L 165.275 222.656 172.579 222.654 L 179.883 222.651 183.749 202.634 C 185.876 191.625,187.696 182.397,187.795 182.129 C 187.930 181.761,189.844 181.641,195.542 181.641 C 203.074 181.641,203.111 181.636,203.299 180.762 C 203.976 177.609,205.469 169.707,205.469 169.274 C 205.469 168.527,160.608 168.492,160.360 169.238 M210.551 173.340 C 210.076 175.864,207.684 187.943,205.235 200.181 C 202.785 212.419,200.781 222.483,200.781 222.544 C 200.781 222.606,203.926 222.656,207.770 222.656 L 214.760 222.656 216.403 213.965 C 217.307 209.185,218.112 205.054,218.191 204.785 C 218.291 204.445,219.328 204.297,221.614 204.297 L 224.892 204.297 225.277 206.543 C 225.489 207.778,226.249 211.909,226.967 215.723 L 228.271 222.656 235.857 222.656 C 242.122 222.656,243.407 222.563,243.237 222.121 C 242.826 221.048,237.496 202.219,237.594 202.184 C 251.512 197.231,254.886 175.024,242.429 170.363 C 239.120 169.125,234.538 168.757,222.406 168.753 L 211.413 168.750 210.551 173.340 M273.529 169.238 C 273.312 169.507,272.041 171.924,270.704 174.609 C 267.365 181.317,253.779 207.736,249.555 215.736 C 247.652 219.342,246.094 222.374,246.094 222.474 C 246.094 222.574,249.230 222.656,253.063 222.656 L 260.033 222.656 262.500 217.383 L 264.967 212.109 273.254 212.109 L 281.541 212.109 281.760 213.574 C 281.881 214.380,282.189 216.753,282.444 218.848 L 282.909 222.656 290.478 222.656 C 295.961 222.656,298.047 222.531,298.047 222.203 C 298.047 220.937,295.788 205.162,293.749 192.188 C 292.483 184.131,291.149 175.562,290.786 173.145 L 290.126 168.750 282.025 168.750 C 276.015 168.750,273.822 168.876,273.529 169.238 M312.891 168.986 C 312.891 169.395,302.723 221.222,302.494 221.982 C 302.299 222.630,302.717 222.668,308.840 222.568 L 315.396 222.461 318.318 206.942 C 319.925 198.406,321.330 191.513,321.441 191.623 C 321.551 191.733,322.449 194.498,323.436 197.767 C 324.423 201.036,326.620 207.974,328.317 213.184 L 331.404 222.656 339.100 222.656 L 346.797 222.656 347.410 219.824 C 347.748 218.267,348.374 215.234,348.801 213.086 C 351.686 198.567,357.480 169.999,357.654 169.434 C 357.849 168.801,357.370 168.750,351.243 168.750 L 344.620 168.750 343.782 173.340 C 342.007 183.058,339.037 198.047,338.716 198.905 C 338.368 199.836,337.065 196.034,330.987 176.367 L 328.693 168.945 320.792 168.840 C 316.446 168.781,312.891 168.847,312.891 168.986 M232.579 181.013 C 237.207 182.947,235.723 190.913,230.313 193.173 C 229.081 193.687,220.519 194.608,220.174 194.263 C 220.127 194.215,220.708 191.092,221.466 187.322 L 222.844 180.469 227.059 180.469 C 229.781 180.469,231.737 180.662,232.579 181.013 M280.014 191.915 L 280.674 200.700 278.954 200.936 C 278.009 201.066,275.779 201.172,274.000 201.172 L 270.766 201.172 272.028 198.535 C 272.722 197.085,274.593 192.964,276.186 189.378 C 277.779 185.792,279.143 182.919,279.218 182.994 C 279.292 183.068,279.650 187.083,280.014 191.915 " stroke="none" fill="#ba1b20" fill-rule="evenodd"></path><path id="path3" d="M126.563 74.378 C 70.633 82.024,36.132 135.883,52.524 189.961 C 57.507 206.402,68.812 223.290,81.514 233.268 L 83.835 235.090 85.765 231.510 C 86.827 229.541,87.748 227.732,87.812 227.490 C 87.876 227.249,86.800 226.153,85.421 225.055 C 74.192 216.120,62.802 198.271,59.960 185.156 C 59.778 184.316,59.128 183.326,58.275 182.586 L 56.886 181.382 57.693 180.047 C 58.476 178.753,58.483 178.595,57.924 175.000 C 49.076 118.128,102.222 70.902,158.992 85.190 C 164.424 86.557,163.972 86.683,167.899 82.705 L 170.759 79.809 167.778 78.750 C 155.979 74.562,138.661 72.725,126.563 74.378 M133.398 86.989 C 98.752 89.288,70.172 113.777,63.112 147.215 C 61.350 155.563,60.827 168.038,62.018 173.348 L 62.305 174.627 65.882 171.005 L 69.459 167.383 69.637 160.352 C 70.652 120.368,107.435 89.923,147.459 95.940 L 151.826 96.596 155.797 93.334 C 160.396 89.555,160.512 89.845,153.869 88.505 C 146.360 86.990,140.228 86.536,133.398 86.989 M195.575 99.902 C 193.330 104.584,193.251 103.876,196.389 107.181 C 203.923 115.119,210.586 125.977,213.885 135.695 L 215.029 139.063 219.609 139.063 L 224.189 139.063 222.663 134.636 C 218.024 121.185,211.911 111.111,201.701 100.098 C 197.222 95.266,197.789 95.284,195.575 99.902 M189.757 111.396 L 187.912 114.552 190.286 117.139 C 194.566 121.804,199.545 129.923,202.354 136.816 L 203.269 139.063 207.082 139.063 L 210.895 139.063 210.175 136.968 C 207.331 128.703,201.261 118.762,193.981 110.449 C 191.577 107.704,191.966 107.617,189.757 111.396 M64.695 186.220 C 66.797 194.920,73.961 207.454,81.462 215.557 C 83.931 218.222,90.153 223.689,90.376 223.388 C 90.436 223.308,91.229 221.789,92.140 220.014 L 93.796 216.785 92.503 215.722 C 84.344 209.010,78.015 199.989,73.854 189.143 L 72.461 185.512 68.447 185.324 L 64.433 185.136 64.695 186.220 M174.805 228.140 L 168.555 228.349 164.648 230.023 C 154.787 234.249,142.470 235.950,132.617 234.446 L 130.273 234.088 126.659 236.942 C 124.671 238.512,123.177 239.876,123.339 239.974 C 125.748 241.428,144.169 242.177,150.391 241.074 C 161.532 239.099,175.966 233.106,181.217 228.275 C 181.568 227.952,180.841 227.937,174.805 228.140 M184.541 229.767 C 166.652 243.310,145.222 248.208,123.473 243.726 C 121.451 243.310,119.666 242.969,119.504 242.969 C 119.343 242.969,117.954 244.020,116.416 245.304 C 114.879 246.588,113.156 248.005,112.587 248.453 C 111.258 249.499,111.487 249.634,116.739 250.911 C 142.632 257.206,169.557 252.089,188.539 237.267 C 191.828 234.699,198.438 228.631,198.438 228.180 C 198.438 228.042,195.857 227.930,192.703 227.930 L 186.968 227.930 184.541 229.767 " stroke="none" fill="#fbad2c" fill-rule="evenodd"></path><path id="path4" d="M188.018 144.434 C 200.012 144.491,219.524 144.491,231.378 144.434 C 243.231 144.376,233.418 144.329,209.570 144.329 C 185.723 144.329,176.024 144.376,188.018 144.434 M63.537 180.176 C 63.636 180.337,76.462 180.469,92.038 180.469 C 113.346 180.469,120.290 180.580,120.080 180.920 C 119.907 181.199,119.973 181.265,120.252 181.092 C 121.706 180.194,118.841 180.081,92.029 179.985 C 76.259 179.929,63.437 180.015,63.537 180.176 M250.099 182.227 C 250.103 183.086,250.183 183.392,250.276 182.906 C 250.370 182.420,250.366 181.717,250.268 181.343 C 250.171 180.970,250.094 181.367,250.099 182.227 M275.688 201.058 C 276.174 201.151,276.877 201.147,277.251 201.050 C 277.624 200.952,277.227 200.875,276.367 200.880 C 275.508 200.884,275.202 200.964,275.688 201.058 M168.868 222.948 C 170.974 223.018,174.314 223.018,176.290 222.947 C 178.266 222.876,176.543 222.819,172.461 222.819 C 168.379 222.819,166.762 222.877,168.868 222.948 M202.637 222.939 C 203.335 223.025,204.478 223.025,205.176 222.939 C 205.874 222.852,205.303 222.781,203.906 222.781 C 202.510 222.781,201.938 222.852,202.637 222.939 M286.888 276.953 C 286.888 282.217,286.943 284.370,287.011 281.738 C 287.078 279.106,287.078 274.800,287.011 272.168 C 286.943 269.536,286.888 271.689,286.888 276.953 M157.715 268.635 C 158.198 268.728,158.989 268.728,159.473 268.635 C 159.956 268.542,159.561 268.466,158.594 268.466 C 157.627 268.466,157.231 268.542,157.715 268.635 M289.969 271.875 C 289.969 273.271,290.040 273.843,290.126 273.145 C 290.213 272.446,290.213 271.304,290.126 270.605 C 290.040 269.907,289.969 270.479,289.969 271.875 M123.735 272.151 C 124.221 272.245,124.924 272.241,125.298 272.143 C 125.671 272.046,125.273 271.969,124.414 271.974 C 123.555 271.978,123.249 272.058,123.735 272.151 M154.786 273.633 C 154.790 274.492,154.870 274.798,154.964 274.312 C 155.057 273.826,155.054 273.123,154.956 272.749 C 154.858 272.376,154.782 272.773,154.786 273.633 M255.621 277.148 C 255.621 279.941,255.683 281.033,255.759 279.574 C 255.834 278.114,255.834 275.829,255.758 274.495 C 255.682 273.162,255.620 274.355,255.621 277.148 M258.743 276.758 C 258.744 279.336,258.807 280.340,258.883 278.989 C 258.960 277.637,258.959 275.528,258.882 274.301 C 258.805 273.074,258.742 274.180,258.743 276.758 M310.254 274.879 C 310.630 274.977,311.245 274.977,311.621 274.879 C 311.997 274.780,311.689 274.700,310.938 274.700 C 310.186 274.700,309.878 274.780,310.254 274.879 M133.359 280.664 C 133.360 283.887,133.420 285.153,133.494 283.478 C 133.567 281.803,133.567 279.167,133.493 277.619 C 133.419 276.071,133.359 277.441,133.359 280.664 M136.482 280.273 C 136.483 283.281,136.544 284.460,136.619 282.893 C 136.693 281.326,136.692 278.865,136.617 277.424 C 136.542 275.984,136.482 277.266,136.482 280.273 M293.266 275.276 C 293.752 275.370,294.455 275.366,294.829 275.268 C 295.202 275.171,294.805 275.094,293.945 275.099 C 293.086 275.103,292.780 275.183,293.266 275.276 M339.991 280.859 C 339.991 283.330,340.055 284.341,340.132 283.105 C 340.210 281.870,340.210 279.849,340.132 278.613 C 340.055 277.378,339.991 278.389,339.991 280.859 M153.224 278.711 C 153.228 279.570,153.308 279.876,153.401 279.390 C 153.495 278.904,153.491 278.201,153.393 277.827 C 153.296 277.454,153.219 277.852,153.224 278.711 M239.950 279.297 C 239.950 280.264,240.026 280.659,240.119 280.176 C 240.213 279.692,240.213 278.901,240.119 278.418 C 240.026 277.935,239.950 278.330,239.950 279.297 M253.231 279.297 C 253.231 280.264,253.308 280.659,253.401 280.176 C 253.494 279.692,253.494 278.901,253.401 278.418 C 253.308 277.935,253.231 278.330,253.231 279.297 M342.294 279.297 C 342.294 280.264,342.370 280.659,342.463 280.176 C 342.556 279.692,342.556 278.901,342.463 278.418 C 342.370 277.935,342.294 278.330,342.294 279.297 M243.059 279.297 C 243.059 280.049,243.140 280.356,243.238 279.980 C 243.336 279.604,243.336 278.989,243.238 278.613 C 243.140 278.237,243.059 278.545,243.059 279.297 M250.091 279.297 C 250.091 280.049,250.171 280.356,250.269 279.980 C 250.368 279.604,250.368 278.989,250.269 278.613 C 250.171 278.237,250.091 278.545,250.091 279.297 M289.969 283.203 C 289.969 284.600,290.040 285.171,290.126 284.473 C 290.213 283.774,290.213 282.632,290.126 281.934 C 290.040 281.235,289.969 281.807,289.969 283.203 M108.301 283.863 C 108.677 283.961,109.292 283.961,109.668 283.863 C 110.044 283.765,109.736 283.684,108.984 283.684 C 108.232 283.684,107.925 283.765,108.301 283.863 " stroke="none" fill="#94a4c5" fill-rule="evenodd"></path></g></svg>