<svg xmlns="http://www.w3.org/2000/svg" xmlns:xlink="http://www.w3.org/1999/xlink" id="svg" version="1.1" width="400" height="400" viewBox="0, 0, 400,400"><g id="svgg"><path id="path0" d="M196.600 64.538 C 174.906 83.366,149.257 105.596,134.766 118.130 C 102.353 146.163,65.490 178.178,64.169 179.441 L 63.299 180.273 92.035 180.171 C 107.840 180.114,120.712 180.206,120.640 180.375 C 120.478 180.752,106.311 205.656,101.365 214.258 C 99.389 217.695,95.745 224.111,93.267 228.516 C 84.968 243.270,64.349 279.666,63.171 281.641 C 62.408 282.919,62.404 282.967,63.111 282.386 C 63.527 282.044,65.273 280.627,66.992 279.236 C 73.303 274.132,103.308 249.525,116.211 238.872 C 123.516 232.841,134.854 223.523,141.406 218.166 C 147.959 212.808,155.957 206.242,159.180 203.573 L 165.039 198.722 165.904 193.605 C 166.380 190.791,166.643 188.380,166.490 188.248 C 166.337 188.116,165.454 187.715,164.529 187.358 L 162.847 186.708 152.419 195.231 C 146.684 199.918,137.510 207.438,132.031 211.941 C 114.483 226.364,101.235 237.109,101.002 237.109 C 100.877 237.109,101.340 236.099,102.031 234.863 C 104.161 231.055,122.510 199.011,131.052 184.180 C 135.508 176.445,139.239 169.899,139.343 169.632 C 139.494 169.249,134.620 169.125,116.310 169.046 L 93.086 168.945 98.984 163.834 C 131.655 135.521,134.565 132.984,163.574 107.532 C 172.222 99.945,179.297 93.850,179.297 93.989 C 179.297 94.127,178.613 95.492,177.778 97.022 C 176.942 98.553,172.296 107.539,167.451 116.992 C 162.607 126.445,156.119 138.926,153.032 144.727 L 147.421 155.273 193.660 155.373 L 239.899 155.472 246.219 150.342 C 249.695 147.521,252.753 145.016,253.013 144.774 C 253.364 144.450,242.156 144.363,209.947 144.439 C 165.085 144.544,165.439 144.555,166.752 143.145 C 166.941 142.940,169.600 138.027,172.660 132.227 C 175.720 126.426,179.411 119.482,180.862 116.797 C 183.195 112.479,187.031 105.085,199.604 80.664 C 208.614 63.164,216.436 47.656,216.254 47.656 C 216.142 47.656,207.298 55.253,196.600 64.538 M135.642 267.380 C 134.288 267.969,133.594 269.237,133.594 271.119 C 133.594 272.082,133.437 272.266,132.617 272.266 C 131.762 272.266,131.641 272.435,131.641 273.633 C 131.641 274.831,131.762 275.000,132.617 275.000 L 133.594 275.000 133.594 280.566 L 133.593 286.133 135.001 286.093 L 136.409 286.053 136.350 280.526 L 136.291 275.000 138.068 275.000 C 139.837 275.000,139.844 274.995,139.844 273.633 C 139.844 272.268,139.840 272.266,138.044 272.266 C 136.276 272.266,136.248 272.246,136.512 271.194 C 136.916 269.586,137.522 269.055,138.747 269.235 C 139.719 269.378,139.844 269.275,139.844 268.337 C 139.844 266.777,137.997 266.357,135.642 267.380 M190.377 267.222 C 189.045 267.608,187.891 269.467,187.891 271.223 C 187.891 271.950,187.659 272.244,187.013 272.336 C 185.744 272.517,185.734 274.748,187.001 274.928 C 187.846 275.048,187.872 275.203,187.978 280.566 L 188.086 286.081 189.551 286.118 L 191.016 286.155 191.016 280.578 L 191.016 275.000 192.578 275.000 C 194.103 275.000,194.141 274.967,194.141 273.633 C 194.141 272.298,194.103 272.266,192.578 272.266 C 191.107 272.266,191.016 272.198,191.016 271.107 C 191.016 269.748,192.158 268.951,193.591 269.310 C 194.422 269.519,194.531 269.415,194.531 268.416 C 194.531 266.913,192.981 266.468,190.377 267.222 M105.837 267.534 C 99.473 269.615,100.711 276.032,107.813 277.776 C 111.989 278.803,112.891 279.351,112.891 280.868 C 112.891 284.362,106.629 285.061,105.078 281.740 C 104.174 279.804,101.334 279.802,101.713 281.738 C 103.075 288.688,116.008 287.963,116.014 280.938 C 116.017 277.469,114.785 276.370,109.390 275.027 C 104.939 273.919,103.601 272.172,105.946 270.530 C 107.890 269.169,112.500 270.289,112.500 272.122 C 112.500 272.555,112.874 272.672,113.965 272.582 C 115.584 272.448,115.796 271.484,114.613 269.637 C 113.438 267.803,108.577 266.639,105.837 267.534 M287.109 276.855 L 287.109 286.133 288.505 286.093 L 289.902 286.053 289.971 282.063 L 290.039 278.072 294.434 277.941 L 298.828 277.810 298.829 281.971 L 298.831 286.133 300.392 286.152 L 301.953 286.171 301.953 276.875 L 301.953 267.578 300.391 267.578 L 298.828 267.578 298.828 271.387 L 298.828 275.195 294.434 275.181 L 290.039 275.167 290.039 271.372 L 290.039 267.578 288.574 267.578 L 287.109 267.578 287.109 276.855 M157.031 270.508 C 157.031 272.122,156.952 272.266,156.055 272.266 C 155.199 272.266,155.078 272.435,155.078 273.633 C 155.078 274.831,155.199 275.000,156.055 275.000 L 157.031 275.000 157.031 279.278 C 157.031 285.260,157.750 286.328,161.777 286.328 C 163.188 286.328,163.281 286.255,163.281 285.156 C 163.281 284.232,163.110 283.984,162.474 283.984 C 160.401 283.984,160.156 283.470,160.156 279.110 L 160.156 275.045 161.799 274.925 C 163.337 274.812,163.441 274.730,163.441 273.633 C 163.441 272.536,163.337 272.453,161.799 272.341 L 160.156 272.221 160.156 270.485 L 160.156 268.750 158.594 268.750 L 157.031 268.750 157.031 270.508 M121.001 272.877 C 119.997 273.422,118.750 275.237,118.750 276.152 C 118.750 276.990,121.279 276.608,121.685 275.709 C 122.635 273.606,126.115 274.107,126.585 276.414 L 126.834 277.633 124.122 277.885 C 119.794 278.288,118.383 279.415,118.368 282.485 C 118.351 286.080,123.188 287.776,125.980 285.153 L 126.953 284.239 126.953 285.186 C 126.953 286.008,127.134 286.133,128.320 286.133 L 129.688 286.133 129.688 280.938 C 129.688 275.388,129.354 274.069,127.650 272.875 C 126.526 272.088,122.453 272.089,121.001 272.877 M144.258 273.078 C 139.977 275.197,139.896 283.397,144.135 285.616 C 147.246 287.245,153.125 285.405,153.125 282.802 C 153.125 281.917,151.050 282.047,150.105 282.991 C 148.102 284.995,144.141 283.720,144.141 281.072 L 144.141 280.078 148.633 280.078 L 153.125 280.078 153.125 278.217 C 153.125 273.392,148.748 270.856,144.258 273.078 M165.234 272.477 C 165.234 272.618,166.381 275.793,167.783 279.532 C 170.460 286.675,170.613 288.520,168.545 288.730 C 168.228 288.763,167.749 288.807,167.480 288.828 C 166.793 288.883,166.419 289.495,166.412 290.577 C 166.404 291.910,169.895 291.611,171.352 290.154 C 172.110 289.396,178.516 273.519,178.516 272.399 C 178.516 272.300,177.856 272.273,177.051 272.340 L 175.586 272.461 173.828 277.611 L 172.070 282.761 170.280 277.611 L 168.490 272.461 166.862 272.341 C 165.967 272.275,165.234 272.336,165.234 272.477 M198.445 272.950 C 195.919 274.219,194.546 277.477,195.116 280.850 C 196.463 288.827,207.615 288.011,208.131 279.898 C 208.504 274.046,203.462 270.429,198.445 272.950 M210.636 279.158 L 210.742 286.051 212.207 286.092 L 213.672 286.133 213.672 282.116 C 213.672 276.568,214.916 274.207,217.427 274.986 C 217.839 275.114,218.347 274.103,218.353 273.145 C 218.362 271.828,216.213 271.931,214.767 273.315 L 213.672 274.365 213.672 273.315 C 213.672 272.350,213.545 272.266,212.100 272.266 L 210.529 272.266 210.636 279.158 M226.923 275.293 C 227.541 276.958,228.686 280.021,229.468 282.099 C 231.266 286.877,230.940 288.770,228.319 288.770 C 227.783 288.770,227.341 288.967,227.338 289.209 C 227.335 289.451,227.227 290.044,227.098 290.527 C 226.606 292.362,231.795 291.355,232.833 289.414 C 233.231 288.671,238.194 275.230,238.850 273.119 C 239.114 272.270,239.040 272.222,237.648 272.338 L 236.165 272.461 234.586 277.432 C 233.718 280.166,232.920 282.407,232.813 282.411 C 232.705 282.416,231.838 280.135,230.885 277.343 L 229.153 272.266 227.477 272.266 L 225.801 272.266 226.923 275.293 M243.514 272.824 C 238.904 274.831,239.247 284.387,243.985 285.951 C 249.153 287.656,253.123 284.763,253.124 279.291 C 253.126 273.778,248.490 270.658,243.514 272.824 M255.859 277.716 C 255.859 281.110,256.035 283.553,256.326 284.191 C 257.369 286.479,261.504 287.116,263.642 285.317 L 264.844 284.306 264.844 285.219 C 264.844 286.003,265.038 286.133,266.211 286.133 L 267.578 286.133 267.578 279.199 L 267.578 272.266 266.016 272.266 L 264.453 272.266 264.453 277.166 C 264.453 282.678,263.869 283.984,261.406 283.984 C 259.238 283.984,258.805 282.936,258.652 277.303 L 258.515 272.266 257.187 272.266 L 255.859 272.266 255.859 277.716 M270.703 279.217 L 270.703 286.169 272.235 286.178 L 273.767 286.186 273.895 281.339 C 274.037 275.973,274.506 275.000,276.951 275.000 C 277.996 275.000,278.494 274.283,278.510 272.754 C 278.520 271.862,275.978 272.189,274.862 273.224 L 273.828 274.181 273.828 273.224 C 273.828 272.366,273.664 272.266,272.266 272.266 L 270.703 272.266 270.703 279.217 M307.820 272.928 C 301.373 276.271,304.202 286.690,311.431 286.227 C 315.549 285.962,317.383 283.828,317.383 279.297 C 317.383 273.689,312.554 270.473,307.820 272.928 M320.011 279.158 L 320.117 286.051 321.582 286.092 L 323.047 286.133 323.047 281.513 C 323.047 276.927,323.055 276.885,324.189 275.751 C 327.101 272.839,328.516 274.626,328.516 281.218 L 328.516 286.264 329.980 286.183 L 331.445 286.101 331.641 281.234 C 331.857 275.849,331.903 275.700,333.583 275.004 C 336.088 273.967,336.711 275.037,336.768 280.478 C 336.794 283.051,336.838 285.365,336.865 285.620 C 336.892 285.875,337.573 286.112,338.379 286.147 L 339.844 286.210 339.844 280.819 C 339.844 277.471,339.667 275.039,339.377 274.403 C 338.345 272.137,334.541 271.519,332.452 273.277 L 331.250 274.288 330.048 273.277 C 328.550 272.017,326.160 271.919,324.316 273.043 C 323.050 273.814,323.047 273.814,323.047 273.041 C 323.047 272.396,322.783 272.266,321.475 272.266 L 319.904 272.266 320.011 279.158 M345.548 273.151 C 341.723 275.344,341.395 282.645,345.003 285.290 C 347.516 287.132,352.395 286.375,353.895 283.910 L 354.681 282.617 353.536 282.319 C 352.599 282.075,352.210 282.201,351.408 283.003 C 349.512 284.898,346.111 283.837,345.480 281.152 L 345.228 280.078 349.958 280.078 L 354.688 280.078 354.687 278.418 C 354.685 273.507,349.819 270.703,345.548 273.151 M149.581 275.639 C 151.017 277.464,150.719 277.734,147.266 277.734 C 144.401 277.734,144.141 277.669,144.141 276.953 C 144.141 274.645,148.055 273.699,149.581 275.639 M203.936 275.751 C 206.430 278.245,204.915 283.984,201.762 283.984 C 199.239 283.984,197.861 281.930,198.139 278.581 C 198.450 274.834,201.520 273.335,203.936 275.751 M248.170 275.064 C 251.799 276.996,250.631 283.984,246.680 283.984 C 244.979 283.984,243.839 283.030,243.344 281.192 C 242.197 276.933,245.000 273.375,248.170 275.064 M313.162 275.552 C 315.815 277.835,314.193 283.984,310.938 283.984 C 309.063 283.984,307.744 282.507,307.518 280.157 C 307.083 275.633,310.251 273.048,313.162 275.552 M350.870 275.293 C 352.641 277.310,352.266 277.734,348.713 277.734 L 345.421 277.734 345.610 276.747 C 345.989 274.763,349.542 273.781,350.870 275.293 M126.657 279.912 C 127.071 280.326,126.192 282.609,125.353 283.301 C 122.993 285.245,119.488 282.770,121.777 280.776 C 122.888 279.808,126.002 279.257,126.657 279.912 " stroke="none" fill="#0c2871" fill-rule="evenodd"/><path id="path2" d="M160.360 169.238 C 160.271 169.507,159.738 172.100,159.176 175.000 C 158.614 177.900,158.065 180.581,157.957 180.957 C 157.774 181.592,158.330 181.641,165.836 181.641 C 173.371 181.641,173.893 181.686,173.639 182.324 C 173.371 182.997,172.993 184.864,168.326 208.594 C 167.037 215.146,165.823 220.991,165.629 221.582 L 165.275 222.656 172.579 222.654 L 179.883 222.651 183.749 202.634 C 185.876 191.625,187.696 182.397,187.795 182.129 C 187.930 181.761,189.844 181.641,195.542 181.641 C 203.074 181.641,203.111 181.636,203.299 180.762 C 203.976 177.609,205.469 169.707,205.469 169.274 C 205.469 168.527,160.608 168.492,160.360 169.238 M210.551 173.340 C 210.076 175.864,207.684 187.943,205.235 200.181 C 202.785 212.419,200.781 222.483,200.781 222.544 C 200.781 222.606,203.926 222.656,207.770 222.656 L 214.760 222.656 216.403 213.965 C 217.307 209.185,218.112 205.054,218.191 204.785 C 218.291 204.445,219.328 204.297,221.614 204.297 L 224.892 204.297 225.277 206.543 C 225.489 207.778,226.249 211.909,226.967 215.723 L 228.271 222.656 235.857 222.656 C 242.122 222.656,243.407 222.563,243.237 222.121 C 242.826 221.048,237.496 202.219,237.594 202.184 C 251.512 197.231,254.886 175.024,242.429 170.363 C 239.120 169.125,234.538 168.757,222.406 168.753 L 211.413 168.750 210.551 173.340 M273.529 169.238 C 273.312 169.507,272.041 171.924,270.704 174.609 C 267.365 181.317,253.779 207.736,249.555 215.736 C 247.652 219.342,246.094 222.374,246.094 222.474 C 246.094 222.574,249.230 222.656,253.063 222.656 L 260.033 222.656 262.500 217.383 L 264.967 212.109 273.254 212.109 L 281.541 212.109 281.760 213.574 C 281.881 214.380,282.189 216.753,282.444 218.848 L 282.909 222.656 290.478 222.656 C 295.961 222.656,298.047 222.531,298.047 222.203 C 298.047 220.937,295.788 205.162,293.749 192.188 C 292.483 184.131,291.149 175.562,290.786 173.145 L 290.126 168.750 282.025 168.750 C 276.015 168.750,273.822 168.876,273.529 169.238 M312.891 168.986 C 312.891 169.395,302.723 221.222,302.494 221.982 C 302.299 222.630,302.717 222.668,308.840 222.568 L 315.396 222.461 318.318 206.942 C 319.925 198.406,321.330 191.513,321.441 191.623 C 321.551 191.733,322.449 194.498,323.436 197.767 C 324.423 201.036,326.620 207.974,328.317 213.184 L 331.404 222.656 339.100 222.656 L 346.797 222.656 347.410 219.824 C 347.748 218.267,348.374 215.234,348.801 213.086 C 351.686 198.567,357.480 169.999,357.654 169.434 C 357.849 168.801,357.370 168.750,351.243 168.750 L 344.620 168.750 343.782 173.340 C 342.007 183.058,339.037 198.047,338.716 198.905 C 338.368 199.836,337.065 196.034,330.987 176.367 L 328.693 168.945 320.792 168.840 C 316.446 168.781,312.891 168.847,312.891 168.986 M232.579 181.013 C 237.207 182.947,235.723 190.913,230.313 193.173 C 229.081 193.687,220.519 194.608,220.174 194.263 C 220.127 194.215,220.708 191.092,221.466 187.322 L 222.844 180.469 227.059 180.469 C 229.781 180.469,231.737 180.662,232.579 181.013 M280.014 191.915 L 280.674 200.700 278.954 200.936 C 278.009 201.066,275.779 201.172,274.000 201.172 L 270.766 201.172 272.028 198.535 C 272.722 197.085,274.593 192.964,276.186 189.378 C 277.779 185.792,279.143 182.919,279.218 182.994 C 279.292 183.068,279.650 187.083,280.014 191.915 " stroke="none" fill="#ba1b20" fill-rule="evenodd"/><path id="path3" d="M126.563 74.378 C 70.633 82.024,36.132 135.883,52.524 189.961 C 57.507 206.402,68.812 223.290,81.514 233.268 L 83.835 235.090 85.765 231.510 C 86.827 229.541,87.748 227.732,87.812 227.490 C 87.876 227.249,86.800 226.153,85.421 225.055 C 74.192 216.120,62.802 198.271,59.960 185.156 C 59.778 184.316,59.128 183.326,58.275 182.586 L 56.886 181.382 57.693 180.047 C 58.476 178.753,58.483 178.595,57.924 175.000 C 49.076 118.128,102.222 70.902,158.992 85.190 C 164.424 86.557,163.972 86.683,167.899 82.705 L 170.759 79.809 167.778 78.750 C 155.979 74.562,138.661 72.725,126.563 74.378 M133.398 86.989 C 98.752 89.288,70.172 113.777,63.112 147.215 C 61.350 155.563,60.827 168.038,62.018 173.348 L 62.305 174.627 65.882 171.005 L 69.459 167.383 69.637 160.352 C 70.652 120.368,107.435 89.923,147.459 95.940 L 151.826 96.596 155.797 93.334 C 160.396 89.555,160.512 89.845,153.869 88.505 C 146.360 86.990,140.228 86.536,133.398 86.989 M195.575 99.902 C 193.330 104.584,193.251 103.876,196.389 107.181 C 203.923 115.119,210.586 125.977,213.885 135.695 L 215.029 139.063 219.609 139.063 L 224.189 139.063 222.663 134.636 C 218.024 121.185,211.911 111.111,201.701 100.098 C 197.222 95.266,197.789 95.284,195.575 99.902 M189.757 111.396 L 187.912 114.552 190.286 117.139 C 194.566 121.804,199.545 129.923,202.354 136.816 L 203.269 139.063 207.082 139.063 L 210.895 139.063 210.175 136.968 C 207.331 128.703,201.261 118.762,193.981 110.449 C 191.577 107.704,191.966 107.617,189.757 111.396 M64.695 186.220 C 66.797 194.920,73.961 207.454,81.462 215.557 C 83.931 218.222,90.153 223.689,90.376 223.388 C 90.436 223.308,91.229 221.789,92.140 220.014 L 93.796 216.785 92.503 215.722 C 84.344 209.010,78.015 199.989,73.854 189.143 L 72.461 185.512 68.447 185.324 L 64.433 185.136 64.695 186.220 M174.805 228.140 L 168.555 228.349 164.648 230.023 C 154.787 234.249,142.470 235.950,132.617 234.446 L 130.273 234.088 126.659 236.942 C 124.671 238.512,123.177 239.876,123.339 239.974 C 125.748 241.428,144.169 242.177,150.391 241.074 C 161.532 239.099,175.966 233.106,181.217 228.275 C 181.568 227.952,180.841 227.937,174.805 228.140 M184.541 229.767 C 166.652 243.310,145.222 248.208,123.473 243.726 C 121.451 243.310,119.666 242.969,119.504 242.969 C 119.343 242.969,117.954 244.020,116.416 245.304 C 114.879 246.588,113.156 248.005,112.587 248.453 C 111.258 249.499,111.487 249.634,116.739 250.911 C 142.632 257.206,169.557 252.089,188.539 237.267 C 191.828 234.699,198.438 228.631,198.438 228.180 C 198.438 228.042,195.857 227.930,192.703 227.930 L 186.968 227.930 184.541 229.767 " stroke="none" fill="#fbad2c" fill-rule="evenodd"/><path id="path4" d="M188.018 144.434 C 200.012 144.491,219.524 144.491,231.378 144.434 C 243.231 144.376,233.418 144.329,209.570 144.329 C 185.723 144.329,176.024 144.376,188.018 144.434 M63.537 180.176 C 63.636 180.337,76.462 180.469,92.038 180.469 C 113.346 180.469,120.290 180.580,120.080 180.920 C 119.907 181.199,119.973 181.265,120.252 181.092 C 121.706 180.194,118.841 180.081,92.029 179.985 C 76.259 179.929,63.437 180.015,63.537 180.176 M250.099 182.227 C 250.103 183.086,250.183 183.392,250.276 182.906 C 250.370 182.420,250.366 181.717,250.268 181.343 C 250.171 180.970,250.094 181.367,250.099 182.227 M275.688 201.058 C 276.174 201.151,276.877 201.147,277.251 201.050 C 277.624 200.952,277.227 200.875,276.367 200.880 C 275.508 200.884,275.202 200.964,275.688 201.058 M168.868 222.948 C 170.974 223.018,174.314 223.018,176.290 222.947 C 178.266 222.876,176.543 222.819,172.461 222.819 C 168.379 222.819,166.762 222.877,168.868 222.948 M202.637 222.939 C 203.335 223.025,204.478 223.025,205.176 222.939 C 205.874 222.852,205.303 222.781,203.906 222.781 C 202.510 222.781,201.938 222.852,202.637 222.939 M286.888 276.953 C 286.888 282.217,286.943 284.370,287.011 281.738 C 287.078 279.106,287.078 274.800,287.011 272.168 C 286.943 269.536,286.888 271.689,286.888 276.953 M157.715 268.635 C 158.198 268.728,158.989 268.728,159.473 268.635 C 159.956 268.542,159.561 268.466,158.594 268.466 C 157.627 268.466,157.231 268.542,157.715 268.635 M289.969 271.875 C 289.969 273.271,290.040 273.843,290.126 273.145 C 290.213 272.446,290.213 271.304,290.126 270.605 C 290.040 269.907,289.969 270.479,289.969 271.875 M123.735 272.151 C 124.221 272.245,124.924 272.241,125.298 272.143 C 125.671 272.046,125.273 271.969,124.414 271.974 C 123.555 271.978,123.249 272.058,123.735 272.151 M154.786 273.633 C 154.790 274.492,154.870 274.798,154.964 274.312 C 155.057 273.826,155.054 273.123,154.956 272.749 C 154.858 272.376,154.782 272.773,154.786 273.633 M255.621 277.148 C 255.621 279.941,255.683 281.033,255.759 279.574 C 255.834 278.114,255.834 275.829,255.758 274.495 C 255.682 273.162,255.620 274.355,255.621 277.148 M258.743 276.758 C 258.744 279.336,258.807 280.340,258.883 278.989 C 258.960 277.637,258.959 275.528,258.882 274.301 C 258.805 273.074,258.742 274.180,258.743 276.758 M310.254 274.879 C 310.630 274.977,311.245 274.977,311.621 274.879 C 311.997 274.780,311.689 274.700,310.938 274.700 C 310.186 274.700,309.878 274.780,310.254 274.879 M133.359 280.664 C 133.360 283.887,133.420 285.153,133.494 283.478 C 133.567 281.803,133.567 279.167,133.493 277.619 C 133.419 276.071,133.359 277.441,133.359 280.664 M136.482 280.273 C 136.483 283.281,136.544 284.460,136.619 282.893 C 136.693 281.326,136.692 278.865,136.617 277.424 C 136.542 275.984,136.482 277.266,136.482 280.273 M293.266 275.276 C 293.752 275.370,294.455 275.366,294.829 275.268 C 295.202 275.171,294.805 275.094,293.945 275.099 C 293.086 275.103,292.780 275.183,293.266 275.276 M339.991 280.859 C 339.991 283.330,340.055 284.341,340.132 283.105 C 340.210 281.870,340.210 279.849,340.132 278.613 C 340.055 277.378,339.991 278.389,339.991 280.859 M153.224 278.711 C 153.228 279.570,153.308 279.876,153.401 279.390 C 153.495 278.904,153.491 278.201,153.393 277.827 C 153.296 277.454,153.219 277.852,153.224 278.711 M239.950 279.297 C 239.950 280.264,240.026 280.659,240.119 280.176 C 240.213 279.692,240.213 278.901,240.119 278.418 C 240.026 277.935,239.950 278.330,239.950 279.297 M253.231 279.297 C 253.231 280.264,253.308 280.659,253.401 280.176 C 253.494 279.692,253.494 278.901,253.401 278.418 C 253.308 277.935,253.231 278.330,253.231 279.297 M342.294 279.297 C 342.294 280.264,342.370 280.659,342.463 280.176 C 342.556 279.692,342.556 278.901,342.463 278.418 C 342.370 277.935,342.294 278.330,342.294 279.297 M243.059 279.297 C 243.059 280.049,243.140 280.356,243.238 279.980 C 243.336 279.604,243.336 278.989,243.238 278.613 C 243.140 278.237,243.059 278.545,243.059 279.297 M250.091 279.297 C 250.091 280.049,250.171 280.356,250.269 279.980 C 250.368 279.604,250.368 278.989,250.269 278.613 C 250.171 278.237,250.091 278.545,250.091 279.297 M289.969 283.203 C 289.969 284.600,290.040 285.171,290.126 284.473 C 290.213 283.774,290.213 282.632,290.126 281.934 C 290.040 281.235,289.969 281.807,289.969 283.203 M108.301 283.863 C 108.677 283.961,109.292 283.961,109.668 283.863 C 110.044 283.765,109.736 283.684,108.984 283.684 C 108.232 283.684,107.925 283.765,108.301 283.863 " stroke="none" fill="#94a4c5" fill-rule="evenodd"/></g><script xmlns=""/></svg>